<?xml version="1.0" encoding="UTF-8"?><svg id="Layer_2" xmlns="http://www.w3.org/2000/svg" xmlns:xlink="http://www.w3.org/1999/xlink" viewBox="0 0 140 48.74052"><defs><style>.cls-1{fill:#002466;}.cls-2{fill:none;}.cls-3{clip-path:url(#clippath);}</style><clipPath id="clippath"><rect class="cls-2" width="140" height="48.74052"/></clipPath></defs><g id="Layer_1-2"><g class="cls-3"><path class="cls-1" d="M39.65846,33.20016c.80663.20113,1.51269-.90825,2.21981-2.32143.40436-.80663,1.21099-1.71488.6055-2.52361-5.44948-7.26493-9.98967-15.94409-20.38371-16.75072-5.75223-.50493-9.78959,2.11925-11.60504,5.65062-4.54124,8.37641,4.43962,16.6512,10.99849,13.32096,4.74342-2.42199,4.74342-10.59622-1.41213-10.89792-1.8165-.10161-4.6418,1.61326-3.12806,4.54019.20113-1.31156,1.5127-2.11924,2.42094-2.11924,3.53242,0,4.13792,4.64181,1.11148,5.5511-4.23954,1.20995-7.77091-3.7346-5.65271-7.46816,1.51479-2.52256,5.44948-3.93469,8.98191-1.51375,4.13792,2.72474,4.43962,8.17423,1.51375,12.10997-3.33024,4.43962-13.5221,7.76986-19.87983,5.44948-1.41213-.50493-2.62418-1.31261-3.53242-2.42304,1.21205,2.92692,3.02749,5.5511,5.24835,7.77091,4.44067,4.44067,10.4946,7.16541,17.15509,7.16541h.90825c1.20995-.10161,2.52256-.20323,3.73356-.40436,3.02749-.6055,5.95337-1.71593,8.47697-3.43081.09952-.80768.20114-1.71593.20114-2.52256,0-4.03735-1.41318-7.87148-2.82531-10.99954,1.91706,1.00881,3.83517,1.61431,4.84399,1.81649"/><path class="cls-1" d="M41.47422,7.16437C37.03355,2.7237,30.97962,0,24.31914,0,17.55809,0,11.50415,2.7237,7.1651,7.16437,2.72442,11.60399-.00032,17.65897-.00032,24.31945-.00032,28.15462.90793,31.18107,4.03704,33.60411c-1.31261-2.82636-2.01868-5.95442-2.01868-9.28466,0-6.15555,2.52151-11.7056,6.55887-15.7419,4.03631-4.03631,9.58636-6.55887,15.74191-6.55887s11.70665,2.52256,15.74295,6.55887c4.03631,4.03631,6.55887,9.58635,6.55887,15.7419s-2.52256,11.7056-6.55887,15.74191c-.30275.30275-.6055.6055-.90824.90825v2.62418c.80663-.6055,1.61431-1.31261,2.32038-2.01763,4.44067-4.44067,7.16436-10.49565,7.16436-17.15613,0-6.86161-2.72369-12.9166-7.16436-17.25565"/><path class="cls-1" d="M60.94507,15.83808c0-2.06058-1.23719-3.38785-3.53137-3.38785-.35827,0-.73435,0-1.1471.03666v6.88256c.39389.01781.78883.03562,1.21938.03562,2.2041,0,3.45909-1.39746,3.45909-3.56699M63.88457,15.80246c0,3.78175-2.59904,6.09374-6.54211,6.09374-1.61326,0-2.70693-.08904-3.76498-.23256v-11.43533c.93234-.16133,2.06163-.28703,3.71051-.28703,4.24896,0,6.59658,2.34761,6.59658,5.86118"/><path class="cls-1" d="M71.00158,17.18253l-.96795-2.65246-.35827-1.11148-.32265,1.11148-.96796,2.65246h2.61684ZM75.3574,21.55616c-.55627.12571-1.12929.21475-1.72117.21475-.32265,0-.68093-.03562-.98577-.08904l-.82444-2.27638h-4.26572l-.82444,2.27638c-.39494.05343-.82444.07124-1.21938.07124-.5196,0-1.02139-.05343-1.41528-.19695l4.30135-11.3819c.44836-.09009.93234-.1079,1.3807-.1079.46617,0,.86007.01781,1.30842.1079l4.26573,11.3819Z"/><path class="cls-1" d="M83.83658,12.55791h-3.26215v9.12333c-.44836.09009-.89672.12571-1.34404.12571-.44836,0-.87891-.03562-1.32728-.12571v-9.12333h-3.27996c-.08904-.39389-.1257-.80663-.1257-1.18271,0-.41275.03666-.80663.1257-1.20157h9.21343c.1079.39493.14351.78882.14351,1.18376,0,.39389-.03561.78883-.14351,1.20052"/><path class="cls-1" d="M89.96751,17.18253l-.96795-2.65246-.35827-1.11148-.32265,1.11148-.96796,2.65246h2.61684ZM94.32333,21.55616c-.55627.12571-1.12929.21475-1.72117.21475-.32265,0-.68093-.03562-.98577-.08904l-.82444-2.27638h-4.26572l-.82444,2.27638c-.39493.05343-.82444.07124-1.21938.07124-.5196,0-1.02138-.05343-1.41527-.19695l4.30135-11.3819c.44836-.09009.93234-.1079,1.3807-.1079.46617,0,.86007.01781,1.30842.1079l4.26573,11.3819Z"/><path class="cls-1" d="M53.5779,37.52078c.09009-.93234.57407-1.72117,1.23719-2.13286.75216.60969,1.95372,1.09367,3.29776,1.09367,1.29061,0,1.7924-.41274,1.7924-1.04024,0-.59083-.28703-.93234-2.312-1.45194-1.93592-.46617-3.63927-1.21833-3.65708-3.53138,0-2.2041,1.75678-3.62042,4.40924-3.62042,1.99039,0,3.31662.64531,3.99754,1.18271-.05342.82549-.50179,1.73897-1.23719,2.16953-.66311-.46617-1.66669-.89672-2.93949-.89672-1.057,0-1.63107.39493-1.63107.93234,0,.57302.25142.82444,2.312,1.32623,2.15172.53741,3.62147,1.45194,3.65709,3.51357.05342,2.49113-1.6845,3.87079-4.44486,3.87079-2.31305,0-3.74718-.76997-4.48153-1.41527"/><path class="cls-1" d="M74.19198,27.16026v11.4898c-.43056.07123-.86007.10685-1.30842.10685s-.89568-.03562-1.3807-.10685v-4.58838h-4.5161v4.58838c-.43055.07123-.87892.10685-1.32623.10685-.44836,0-.87892-.03562-1.34509-.10685v-11.4898c.41275-.07228.84225-.1079,1.29061-.1079s.89673.03562,1.3807.1079v4.44486h4.5161v-4.44486c.43055-.07228.87891-.1079,1.32728-.1079s.87787.03562,1.36185.1079"/><path class="cls-1" d="M84.48189,37.44871c0,.39389-.03562.80663-.12571,1.20157h-7.77929v-11.50761h7.60016c.1079.37608.14351.80663.14351,1.20052,0,.39494-.03561.78882-.14351,1.18271h-4.92884v2.07943h4.39144c.08904.39494.1257.78882.1257,1.18376,0,.39389-.03666.76997-.1257,1.1649h-4.39144v2.312h5.10797c.09009.39389.12571.78882.12571,1.18271"/><path class="cls-1" d="M92.54884,30.87036c0-1.07481-.73435-1.75573-2.32981-1.75573-.43056,0-.84225.01676-1.23719.05342v3.63823c.39493.01781.80663.01781,1.25499.01781,1.6667,0,2.312-.86006,2.312-1.95373M95.29139,30.83474c0,2.76036-1.97154,4.30134-5.05455,4.30134-.43055,0-.84225,0-1.25499-.01781v3.53137c-.42951.09009-.87787.1079-1.32623.1079s-.87787-.01781-1.36185-.1079v-11.41752c1.07481-.23361,2.45552-.39494,3.81736-.39494,3.72832,0,5.18027,1.59546,5.18027,3.99755"/><path class="cls-1" d="M106.7284,27.16026v11.4898c-.43056.07123-.86007.10685-1.30842.10685s-.89568-.03562-1.3807-.10685v-4.58838h-4.5161v4.58838c-.43055.07123-.87891.10685-1.32623.10685-.44836,0-.87891-.03562-1.34508-.10685v-11.4898c.41274-.07228.84225-.1079,1.29061-.1079s.89673.03562,1.3807.1079v4.44486h4.5161v-4.44486c.43055-.07228.87891-.1079,1.32728-.1079s.87787.03562,1.36185.1079"/><path class="cls-1" d="M117.01831,37.44871c0,.39389-.03562.80663-.12571,1.20157h-7.77929v-11.50761h7.60016c.1079.37608.14351.80663.14351,1.20052,0,.39494-.03561.78882-.14351,1.18271h-4.92884v2.07943h4.39144c.08904.39494.1257.78882.1257,1.18376,0,.39389-.03666.76997-.1257,1.1649h-4.39144v2.312h5.10797c.09009.39389.12571.78882.12571,1.18271"/><path class="cls-1" d="M121.51889,32.46529c.48399.01886.96796.01886,1.41528.01886,1.39851,0,1.95372-.75321,1.95372-1.68555,0-.98577-.64426-1.59441-1.97154-1.59441-.48398,0-.93129.01781-1.39746.05343v3.20767ZM128.25794,38.52446c-.59084.16133-1.46976.21475-2.25858.21475-.23256,0-.48398,0-.68093-.01781l-2.36542-4.03316h-.12571c-.41274,0-.86111,0-1.30842-.01781v3.97974c-.43055.08904-.87891.10685-1.32728.10685-.44732,0-.87787-.01781-1.36184-.10685v-11.32848c1.12928-.23361,2.59903-.37608,3.87184-.37608,3.4769,0,4.91103,1.45194,4.91103,3.6927,0,1.66669-.80663,2.81379-2.04277,3.45804l2.68808,4.4281Z"/><path class="cls-1" d="M137.06007,32.80627c0-2.06058-1.23719-3.38786-3.53136-3.38786-.35827,0-.73435,0-1.1471.03666v6.88257c.39389.01781.78882.03562,1.21938.03562,2.20409,0,3.45908-1.39746,3.45908-3.56699M139.99958,32.77066c0,3.78175-2.59904,6.09374-6.54211,6.09374-1.61327,0-2.70693-.08904-3.76499-.23256v-11.43533c.93234-.16133,2.06163-.28704,3.71051-.28704,4.24896,0,6.59658,2.34761,6.59658,5.86118"/></g></g></svg>